<?xml version="1.0" standalone="no"?>
<!DOCTYPE svg PUBLIC "-//W3C//DTD SVG 20010904//EN"
 "http://www.w3.org/TR/2001/REC-SVG-20010904/DTD/svg10.dtd">
<svg version="1.0" xmlns="http://www.w3.org/2000/svg"
 width="463.000000pt" height="539.000000pt" viewBox="0 0 463.000000 539.000000"
 preserveAspectRatio="xMidYMid meet">

<g transform="translate(0.000000,539.000000) scale(0.100000,-0.100000)"
fill="#000000" stroke="none">
<path d="M1890 5376 c14 -18 -23 -45 -127 -92 -43 -19 -86 -39 -97 -45 -10 -6
-77 -36 -150 -67 -138 -59 -187 -67 -291 -48 -89 17 -127 13 -156 -16 -15 -16
-36 -28 -46 -28 -32 0 -80 -94 -102 -197 -25 -114 -34 -131 -116 -218 -124
-132 -219 -255 -289 -376 -106 -183 -128 -231 -133 -292 -3 -34 -23 -117 -44
-184 -21 -67 -48 -160 -59 -207 -11 -47 -35 -114 -54 -149 -28 -54 -35 -80
-41 -153 -8 -97 7 -276 33 -384 10 -44 16 -124 17 -245 2 -187 10 -257 51
-460 55 -273 103 -399 173 -452 20 -15 38 -28 41 -28 3 -1 20 -11 39 -22 19
-12 38 -20 43 -17 4 3 8 1 8 -5 0 -30 213 -54 308 -35 27 5 30 10 26 36 -3 29
-2 30 28 24 17 -3 34 -6 39 -6 20 0 7 -18 -16 -24 -32 -8 -24 -26 8 -19 75 17
87 24 87 53 0 16 -4 30 -9 32 -4 2 -20 75 -35 163 -15 88 -32 187 -38 220 -17
86 -17 460 0 476 10 11 12 9 12 -5 0 -29 59 -161 102 -228 88 -138 186 -205
355 -245 92 -21 274 -23 343 -3 25 7 57 14 73 16 15 2 41 11 58 19 40 21 52
16 36 -15 -8 -14 -11 -33 -8 -42 10 -28 117 51 148 109 29 56 43 73 43 53 0
-7 3 -10 6 -7 4 4 1 13 -5 21 -10 12 -8 16 8 21 12 3 21 15 21 25 0 11 6 34
14 52 8 18 22 60 31 93 32 117 89 202 163 241 53 27 77 18 150 -56 43 -44 68
-93 88 -173 9 -34 25 -79 35 -99 29 -57 122 -186 139 -193 39 -14 72 -23 66
-18 -3 3 -1 13 6 20 9 11 9 17 -3 24 -18 11 -4 12 19 0 28 -14 131 -43 217
-60 136 -28 286 -1 415 75 51 30 122 98 178 169 l23 30 -6 -160 c-3 -88 -7
-171 -9 -185 -2 -14 -6 -47 -10 -75 -14 -102 -17 -115 -27 -109 -6 3 -8 -5 -5
-20 3 -14 0 -26 -5 -26 -5 0 -9 -19 -9 -42 -1 -24 -7 -70 -15 -103 -10 -44
-11 -62 -3 -70 8 -7 9 -6 4 3 -5 9 4 12 36 11 l43 -2 -35 -6 -35 -7 49 -17
c27 -9 65 -17 84 -17 20 0 63 -5 97 -11 l62 -11 73 44 c158 94 232 209 296
462 41 162 44 181 54 407 13 293 25 391 56 479 24 69 26 84 21 192 -5 110 -7
120 -40 180 -45 80 -60 152 -97 458 -10 85 -55 210 -128 356 -45 90 -81 148
-176 282 -57 80 -64 93 -70 134 -7 44 -39 81 -114 131 -23 16 -40 33 -36 38 3
5 -2 12 -11 15 -9 4 -29 25 -44 48 -16 22 -57 73 -90 111 -34 39 -78 104 -98
145 -29 59 -60 99 -145 187 -59 62 -108 117 -108 123 0 7 -215 10 -701 10
-591 -1 -699 -3 -689 -14z m-727 -263 c-7 -2 -21 -2 -30 0 -10 3 -4 5 12 5 17
0 24 -2 18 -5z m45 -48 c11 -10 -10 -19 -47 -20 -22 0 -37 -3 -35 -6 5 -9 -66
-22 -74 -14 -9 8 15 29 51 42 30 12 93 11 105 -2z m2237 -115 c10 -11 13 -20
7 -20 -6 0 -16 9 -22 20 -6 11 -9 20 -7 20 2 0 12 -9 22 -20z m-855 -436 c0
-2 -9 0 -20 6 -11 6 -20 13 -20 16 0 2 9 0 20 -6 11 -6 20 -13 20 -16z m201
-94 c5 0 11 -11 15 -25 3 -13 11 -23 17 -22 6 1 13 -9 15 -22 l4 -23 -38 28
c-43 33 -96 102 -88 115 3 5 19 -4 35 -21 17 -16 35 -30 40 -30z m19 34 c0 -8
-4 -12 -10 -9 -5 3 -10 10 -10 16 0 5 5 9 10 9 6 0 10 -7 10 -16z m-310 -14
c0 -5 -5 -10 -11 -10 -5 0 -7 5 -4 10 3 6 8 10 11 10 2 0 4 -4 4 -10z m83 -71
c16 -33 30 -59 33 -57 2 3 -5 22 -16 43 -11 21 -17 41 -14 44 6 6 45 -35 61
-64 6 -11 22 -20 35 -20 14 0 22 -5 20 -13 -1 -8 2 -11 7 -8 4 3 20 -12 35
-34 14 -22 29 -40 32 -40 4 0 -1 11 -10 25 -9 14 -14 31 -10 37 4 6 3 8 -2 5
-10 -6 -54 51 -58 75 -1 7 -8 24 -15 36 -7 13 -9 27 -5 30 4 4 9 2 11 -5 2 -7
10 -10 18 -7 13 5 42 -33 37 -49 -1 -5 1 -6 6 -3 5 3 18 -3 28 -13 11 -10 32
-26 47 -35 15 -10 24 -23 20 -29 -3 -5 -1 -7 5 -3 6 3 22 1 36 -5 20 -9 23
-15 15 -25 -9 -10 -7 -15 5 -20 9 -4 16 -18 16 -34 0 -24 -4 -27 -22 -24 -13
2 -17 1 -9 -2 11 -5 11 -8 0 -15 -11 -7 -10 -9 4 -9 9 0 17 -7 17 -15 0 -8 5
-15 10 -15 6 0 10 7 10 15 0 8 9 15 20 15 19 0 20 -2 5 -30 -19 -36 -19 -46
-1 -31 8 7 17 23 20 37 7 25 7 25 84 18 78 -7 120 -23 201 -77 27 -18 41 -35
41 -49 0 -12 3 -18 7 -15 3 4 12 -1 20 -11 8 -9 5 1 -6 23 -10 22 -42 62 -70
88 -51 48 -79 64 -45 26 l19 -22 -30 16 c-44 22 -101 35 -185 42 -41 4 -75 7
-76 8 -1 1 -4 21 -8 44 l-6 42 32 -14 c26 -11 33 -19 31 -39 -1 -14 2 -26 8
-26 5 0 9 8 9 18 0 15 7 19 33 18 17 -1 38 -5 45 -10 7 -4 15 -6 18 -3 3 2
-11 14 -31 25 -19 12 -35 26 -35 32 0 6 -4 8 -10 5 -6 -4 -10 7 -10 24 0 17 5
31 10 31 6 0 10 -4 10 -9 0 -15 122 -102 135 -97 10 3 44 -19 110 -72 6 -4 25
-14 43 -21 32 -14 42 -35 20 -44 -7 -3 -3 -6 10 -6 16 -1 22 -7 22 -24 0 -12
11 -43 25 -70 14 -26 23 -47 20 -47 -3 0 4 -10 15 -22 23 -25 34 -57 28 -85
-2 -10 3 -23 12 -30 8 -6 15 -17 16 -25 0 -7 2 -21 2 -30 1 -10 9 -18 17 -18
14 0 17 -4 19 -32 1 -7 7 -19 14 -26 7 -8 10 -18 7 -23 -4 -5 -1 -9 6 -9 7 0
10 -3 6 -6 -3 -4 1 -13 9 -21 12 -13 12 -18 -4 -41 -34 -49 -35 -57 -5 -29
l31 29 27 -46 c15 -25 31 -46 37 -46 5 0 8 -12 6 -27 -2 -17 2 -27 9 -26 6 1
14 -4 17 -13 3 -8 2 -12 -3 -9 -14 8 -19 -27 -7 -53 6 -16 6 -33 -2 -55 -10
-29 -13 -57 -15 -143 l-1 -30 -75 30 c-42 17 -82 36 -89 43 -7 7 -20 13 -27
13 -8 0 -17 5 -21 12 -5 7 -3 8 6 3 9 -5 11 -4 6 3 -4 7 -12 12 -18 12 -6 0
-20 8 -30 17 -11 10 -32 16 -49 15 -19 -2 -28 2 -24 8 3 5 0 10 -7 10 -10 0
-9 3 2 11 12 8 10 9 -10 5 -14 -4 -46 -12 -72 -18 -31 -7 -62 -8 -95 -2 -32 7
-72 6 -120 -1 -39 -6 -81 -7 -93 -3 -15 5 -19 4 -14 -4 5 -7 2 -9 -8 -5 -16 6
-112 -36 -103 -45 10 -10 -113 -109 -147 -119 -41 -12 -168 -9 -168 4 0 6 -5
5 -12 -1 -20 -16 -83 -8 -83 11 0 9 -4 19 -9 24 -5 4 -6 3 -3 -3 4 -7 0 -17
-8 -24 -8 -7 -15 -8 -15 -3 0 7 -20 6 -54 -2 -52 -12 -58 -11 -108 13 -29 14
-58 24 -65 23 -6 -1 -14 3 -18 9 -3 5 -1 10 5 10 13 0 -14 55 -32 66 -9 5 -8
2 1 -9 21 -27 8 -30 -20 -4 -13 12 -27 21 -31 20 -5 -2 -8 3 -8 10 0 8 -4 7
-10 -3 -5 -8 -7 -24 -4 -35 5 -15 -3 -11 -30 15 -23 21 -48 35 -64 36 -15 0
-45 9 -67 18 l-40 17 30 -25 30 -26 -32 17 c-18 10 -33 21 -33 25 0 3 -8 5
-17 3 -40 -8 -104 -13 -99 -8 10 11 -34 35 -52 29 -24 -8 -78 9 -74 23 2 8 -4
10 -17 6 -11 -3 -57 -7 -101 -8 -80 -1 -81 -1 -58 -20 23 -19 17 -19 -29 0
-10 4 -14 2 -10 -4 4 -6 -10 -10 -36 -11 -23 0 -52 -4 -64 -8 -25 -7 -31 10
-12 36 8 12 9 9 4 -10 -5 -21 -4 -22 5 -7 6 9 19 17 28 18 10 1 7 4 -8 8 -14
4 -27 17 -30 31 -5 19 -8 12 -14 -30 -4 -30 -14 -66 -23 -79 -8 -13 -10 -20
-4 -17 6 4 3 -9 -6 -30 l-18 -37 -6 34 c-5 24 -7 27 -8 10 0 -13 -6 -52 -13
-88 -10 -55 -16 -66 -43 -83 -41 -25 -45 -25 -39 4 2 13 8 50 13 82 5 33 14
77 20 98 5 22 8 44 5 48 -3 4 2 8 10 8 10 0 16 9 16 23 0 39 -12 67 -28 67 -8
0 -13 3 -9 6 13 14 45 -9 55 -39 l10 -32 -1 40 c-2 35 -7 42 -37 57 -35 18
-35 18 -7 18 15 0 27 4 27 8 0 5 11 15 25 22 14 7 25 18 25 23 0 6 -9 2 -20
-8 -11 -10 -22 -16 -24 -14 -11 12 -15 48 -6 54 7 4 7 12 0 25 -8 14 -2 30 26
72 20 29 43 57 52 61 11 5 10 3 -2 -7 -11 -9 -15 -16 -10 -16 14 0 34 21 34
36 0 7 -8 10 -22 6 -14 -3 -19 -2 -14 6 11 17 37 15 53 -5 13 -17 13 -16 7 6
-4 16 -3 21 5 17 6 -4 11 -2 11 3 0 6 7 11 15 11 8 0 15 -5 15 -11 0 -5 16
-17 35 -25 27 -11 35 -20 36 -42 l1 -27 9 30 c6 23 14 30 33 30 13 0 22 -3 19
-7 -2 -5 3 -8 11 -8 9 0 16 4 16 10 0 5 10 15 23 21 37 19 -53 -70 -103 -102
-49 -31 -48 -39 1 -13 30 15 30 15 19 -8 l-11 -23 20 23 c10 12 24 22 30 22 5
0 13 5 17 12 5 7 3 8 -6 3 -8 -5 -11 -3 -8 6 3 8 13 14 24 14 11 0 19 7 19 16
0 19 24 51 34 44 8 -4 41 30 41 43 0 4 9 13 21 20 12 8 19 9 15 4 -3 -5 -1
-24 4 -42 7 -24 5 -40 -6 -62 -9 -16 -13 -32 -11 -35 3 -2 11 5 17 18 12 22
13 22 26 -11 8 -18 17 -30 20 -27 3 3 0 16 -7 29 -16 30 -29 98 -18 98 5 0 9
14 9 30 0 17 6 33 14 36 12 5 27 37 23 48 -1 3 8 15 19 28 12 13 39 51 61 85
l40 63 11 -53 c10 -50 10 -48 7 35 -2 48 -6 91 -9 96 -3 5 4 21 17 34 30 34
49 67 43 76 -2 4 3 8 13 8 17 0 17 -3 -3 -41 -12 -22 -30 -53 -40 -68 -10 -15
-16 -30 -13 -33 3 -3 17 11 30 33 13 21 32 44 41 52 8 7 13 18 9 24 -3 5 -2 7
4 4 5 -3 17 3 26 14 15 17 47 27 47 14 0 -3 -11 -28 -25 -55 -36 -72 -22 -62
17 12 l33 63 6 -40 c5 -35 6 -37 12 -15 3 14 9 42 12 63 7 44 35 52 35 10 0
-38 10 -22 12 18 1 26 6 35 19 35 10 0 15 -4 13 -8 -9 -14 9 -9 27 8 16 14 18
14 24 -5 3 -12 10 -21 15 -21 5 0 6 7 3 17 -4 11 -3 14 6 9 7 -5 10 -15 6 -23
-3 -9 2 -24 11 -34 14 -15 14 -19 3 -19 -10 -1 -9 -4 4 -11 9 -5 17 -17 17
-26 0 -10 6 -13 16 -9 9 3 12 2 9 -5 -10 -14 13 -38 33 -34 9 2 21 4 25 4 5 1
1 8 -7 17 -9 8 -19 13 -23 11 -5 -3 -7 25 -7 61 2 102 1 98 27 74 31 -29 36
-28 31 8 -3 18 -1 30 6 30 6 0 8 6 5 13 -4 6 -1 5 7 -3 23 -27 129 -110 175
-137 32 -19 41 -28 31 -34 -7 -5 -8 -9 -2 -9 5 0 15 5 22 12 8 8 15 8 27 -2 9
-7 37 -15 63 -16 26 -1 71 -5 100 -8 32 -4 52 -2 52 4 0 12 0 12 -67 14 -28 2
-59 8 -67 16 -11 8 -16 9 -16 1 0 -15 -39 -6 -111 26 -59 26 -132 92 -144 131
-8 26 11 31 19 5 4 -10 16 -29 27 -43 11 -14 18 -19 14 -12 -3 6 0 12 7 12 8
0 6 5 -5 11 -9 6 -15 14 -12 20 4 5 2 9 -4 9 -5 0 -9 12 -8 28 3 44 37 45 65
2 29 -42 113 -130 125 -130 5 0 -16 24 -46 53 -55 53 -92 110 -82 127 11 18
31 -2 58 -61z m330 43 c-2 -7 5 -12 15 -12 10 0 27 -7 38 -15 18 -13 17 -14
-11 -6 -16 5 -39 12 -49 17 -13 5 -17 4 -12 -4 4 -6 24 -16 46 -22 24 -6 41
-18 45 -30 4 -11 10 -18 14 -16 4 3 5 -8 3 -24 l-4 -28 -36 20 -37 20 35 -31
35 -31 -31 15 c-30 14 -52 34 -52 45 -1 3 -5 18 -11 33 -6 15 -13 42 -16 58
-5 26 -3 30 12 27 10 -2 17 -10 16 -16z m-76 -14 c-3 -8 -6 -5 -6 6 -1 11 2
17 5 13 3 -3 4 -12 1 -19z m-181 0 c5 4 6 3 2 -2 -4 -4 2 -17 13 -29 24 -27
25 -41 0 -27 -11 5 -26 24 -35 41 -11 22 -12 28 -2 20 7 -6 17 -7 22 -3z m220
-40 c14 -58 14 -60 -1 -48 -14 11 -26 80 -14 80 4 0 11 -15 15 -32z m-551 -18
c-4 -6 -1 -19 6 -28 12 -16 12 -16 -5 0 -16 14 -15 38 0 38 3 0 2 -5 -1 -10z
m767 -50 c33 -33 56 -60 51 -60 -13 0 -123 100 -123 111 0 17 12 9 72 -51z
m-846 24 c16 6 18 -3 5 -23 -7 -11 -11 -10 -20 7 -6 11 -10 27 -10 34 1 7 3 5
6 -5 3 -11 11 -16 19 -13z m19 -43 c-3 -11 -1 -22 5 -26 12 -8 13 -25 1 -25
-13 0 -22 30 -16 51 4 11 9 19 11 19 3 0 3 -9 -1 -19z m955 -58 c0 -7 -39 17
-46 28 -3 6 5 3 20 -6 14 -10 26 -19 26 -22z m68 10 c2 -7 -1 -13 -8 -13 -6 0
-8 5 -4 12 5 8 2 9 -9 5 -9 -3 -19 -1 -23 4 -4 7 3 9 17 7 12 -1 24 -9 27 -15z
m-1328 -5 c0 -4 -4 -8 -9 -8 -6 0 -12 4 -15 8 -3 5 1 9 9 9 8 0 15 -4 15 -9z
m-468 -58 c-12 -11 -28 -20 -37 -20 -9 0 -14 -3 -11 -8 5 -9 -11 -31 -38 -52
-20 -15 -20 -15 0 19 18 32 78 81 98 81 5 0 0 -9 -12 -20z m230 -35 c-5 -28
-22 -44 -22 -21 0 21 11 46 20 46 4 0 5 -11 2 -25z m-131 -8 c-10 -9 -11 -8
-5 6 3 10 9 15 12 12 3 -3 0 -11 -7 -18z m229 8 c0 -8 -4 -15 -10 -15 -5 0
-10 7 -10 15 0 8 5 15 10 15 6 0 10 -7 10 -15z m-26 -24 c3 -4 -1 -16 -8 -27
-12 -16 -12 -20 2 -30 14 -10 14 -15 -4 -44 -10 -18 -23 -32 -29 -31 -13 2 -9
53 6 62 6 4 9 12 5 17 -4 6 -4 23 0 37 6 25 18 32 28 16z m-244 -8 c-1 -5 -7
-19 -14 -32 -10 -18 -15 -20 -21 -10 -5 7 -4 14 3 17 7 2 12 10 12 18 0 8 5
14 10 14 6 0 10 -3 10 -7z m71 -16 c-10 -9 -11 -8 -5 6 3 10 9 15 12 12 3 -3
0 -11 -7 -18z m1764 13 c3 -6 -1 -7 -9 -4 -18 7 -21 14 -7 14 6 0 13 -4 16
-10z m-1749 -70 c-22 -74 -56 -128 -115 -183 -43 -40 -56 -47 -86 -45 -19 2
-35 7 -35 11 0 5 -5 5 -12 1 -7 -5 -8 -3 -4 5 5 7 14 10 21 7 15 -5 45 24 45
44 0 7 11 28 25 45 13 18 22 35 19 38 -3 2 11 32 31 66 35 59 51 78 38 44 -4
-11 -3 -14 5 -9 18 11 14 -5 -8 -39 -11 -16 -25 -30 -32 -30 -7 0 -13 -10 -14
-21 -1 -12 -13 -37 -28 -56 -41 -54 -31 -67 14 -18 22 25 40 48 40 51 0 3 9
16 20 29 11 13 20 29 20 37 0 7 4 13 10 13 5 0 7 7 4 15 -4 8 -1 15 6 15 6 0
8 5 4 12 -4 6 -3 8 3 5 6 -4 16 0 23 8 21 25 22 10 6 -45z m-116 15 c0 -14
-39 -66 -68 -89 -17 -15 -32 -33 -31 -39 0 -7 7 -2 16 11 27 38 35 24 11 -20
-12 -24 -22 -46 -23 -50 0 -11 -9 -11 -57 -4 -23 4 -48 12 -55 18 -15 12 -7
32 9 22 7 -4 8 -2 4 4 -4 7 5 24 19 39 15 16 38 45 51 66 14 21 29 35 35 31
18 -11 61 6 55 22 -4 12 -2 12 14 4 11 -6 20 -13 20 -15z m-60 5 c0 -5 -5 -10
-11 -10 -5 0 -7 5 -4 10 3 6 8 10 11 10 2 0 4 -4 4 -10z m-148 -112 c-7 -7
-12 -8 -12 -2 0 14 12 26 19 19 2 -3 -1 -11 -7 -17z m432 7 c-4 -8 -8 -15 -10
-15 -2 0 -4 7 -4 15 0 8 4 15 10 15 5 0 7 -7 4 -15z m-93 -33 c-5 -10 -18 -25
-27 -33 -16 -12 -17 -12 -9 1 10 18 37 50 42 50 2 0 -1 -8 -6 -18z m59 -2 c0
-5 -5 -10 -11 -10 -5 0 -7 5 -4 10 3 6 8 10 11 10 2 0 4 -4 4 -10z m-115 -30
c-10 -11 -23 -20 -29 -20 -6 1 0 10 13 20 30 26 39 26 16 0z m-240 -50 c3 -5
1 -10 -4 -10 -6 0 -11 5 -11 10 0 6 2 10 4 10 3 0 8 -4 11 -10z m-37 -37 c16
-16 16 -16 -1 -10 -10 4 -23 7 -28 7 -5 0 -9 5 -9 10 0 15 20 12 38 -7z m63
-17 c5 3 9 -2 9 -11 0 -9 -9 -19 -20 -22 -11 -3 -20 -9 -20 -14 0 -5 9 -9 20
-9 11 0 20 -4 20 -10 0 -19 -39 -10 -58 14 -13 18 -26 24 -43 20 -13 -2 -1 7
26 20 28 13 52 20 53 15 2 -5 8 -7 13 -3z m256 -28 c-3 -7 -5 -2 -5 12 0 14 2
19 5 13 2 -7 2 -19 0 -25z m-200 -12 c-3 -7 0 -20 6 -27 9 -9 6 -9 -8 1 -11 8
-22 15 -24 17 -1 1 0 6 4 12 9 16 28 13 22 -3z m-187 -6 c-19 -13 -30 -13 -30
0 0 6 10 10 23 10 18 0 19 -2 7 -10z m-479 -191 c19 -16 20 -18 4 -10 -34 17
-51 31 -39 31 7 0 22 -9 35 -21z m-6 -87 c-17 -15 -31 -27 -33 -26 -8 5 20 44
28 39 5 -3 11 -1 15 5 3 5 9 10 13 10 4 0 -7 -13 -23 -28z m-79 -1 c-4 -5 0
-11 6 -14 9 -3 10 -8 3 -15 -6 -6 -18 -6 -30 -2 -17 7 -17 9 -2 9 9 1 16 4 16
9 -2 12 1 22 7 22 3 0 3 -4 0 -9z m160 -38 c0 -10 -9 -26 -18 -35 -23 -23 -24
-2 -2 30 18 27 20 27 20 5z m-126 -27 c0 -2 -8 -10 -17 -17 -16 -13 -17 -12
-4 4 13 16 21 21 21 13z m823 -73 c-7 -2 -21 -2 -30 0 -10 3 -4 5 12 5 17 0
24 -2 18 -5z m-245 -25 c-4 -16 -29 -37 -46 -38 -7 0 0 11 15 25 33 28 34 29
31 13z m1809 -14 c-3 -3 -12 -4 -19 -1 -8 3 -5 6 6 6 11 1 17 -2 13 -5z
m-1181 -29 c25 -19 40 -19 24 0 -10 12 -10 15 0 15 6 0 17 -13 23 -30 6 -16
17 -30 24 -30 7 0 13 -6 13 -13 0 -7 9 -13 20 -14 17 -2 20 2 15 20 -6 21 -6
22 9 3 9 -11 16 -24 16 -30 0 -5 7 -1 16 10 8 10 13 14 10 7 -9 -16 4 -43 20
-43 8 0 14 -6 14 -14 0 -8 8 -22 18 -32 34 -35 72 -87 72 -100 0 -25 -25 -15
-111 41 -46 30 -115 67 -154 82 -87 33 -99 41 -85 59 8 9 6 15 -7 23 -28 16 6
14 39 -3 24 -13 27 -12 31 5 3 12 -4 25 -21 39 -15 10 -22 20 -16 20 5 0 19
-7 30 -15z m-1256 -25 c-8 -5 -22 -10 -30 -10 -13 0 -13 1 0 10 8 5 22 10 30
10 13 0 13 -1 0 -10z m1175 -30 c10 -11 13 -20 7 -20 -6 0 -16 9 -22 20 -6 11
-9 20 -7 20 2 0 12 -9 22 -20z m-315 -10 c12 -8 11 -10 -7 -10 -12 0 -25 5
-28 10 -8 13 15 13 35 0z m50 0 c13 -8 13 -10 -2 -10 -9 0 -20 5 -23 10 -8 13
5 13 25 0z m263 -27 c-15 -5 -53 14 -53 27 0 4 14 1 32 -8 18 -8 27 -17 21
-19z m-391 14 c-14 -6 -26 -7 -32 -1 -5 5 4 9 23 10 30 1 30 1 9 -9z m-260
-20 c-6 -7 -12 -21 -15 -32 -3 -14 -5 -10 -6 11 -1 33 6 47 21 38 5 -4 5 -10
0 -17z m2172 13 c49 -6 109 -16 133 -22 44 -11 58 -28 24 -28 -11 0 -22 -4
-25 -8 -3 -5 5 -8 17 -8 22 1 31 -27 15 -50 -5 -7 3 -9 25 -7 25 4 29 2 17 -6
-9 -7 -10 -11 -3 -11 6 0 10 -9 8 -19 -2 -12 3 -21 14 -24 16 -4 17 0 10 37
-11 59 -27 96 -41 97 -9 0 -10 2 -1 5 6 3 30 -4 52 -15 110 -57 151 -131 159
-286 2 -55 2 -98 -1 -95 -3 3 -8 48 -10 100 -4 99 -15 132 -64 198 -13 17 -29
32 -36 32 -16 0 -16 -141 -1 -161 15 -19 34 -174 34 -280 1 -76 2 -82 15 -65
25 33 17 7 -20 -63 -91 -172 -235 -266 -441 -286 -218 -22 -424 87 -492 260
-26 65 -18 87 18 53 14 -13 25 -21 25 -19 0 3 20 -8 45 -24 48 -30 102 -40
133 -23 15 8 18 7 12 -3 -6 -9 -4 -10 6 -3 20 12 30 12 61 -3 36 -17 43 -16
23 3 -12 13 -14 19 -4 28 8 8 13 8 16 -2 3 -6 8 -10 13 -7 5 3 11 -4 15 -15 7
-22 20 -26 30 -10 4 6 11 8 16 5 5 -4 9 -2 9 3 0 9 2 10 73 13 26 1 47 5 47 9
0 12 -26 30 -33 23 -4 -3 -7 -1 -7 6 0 8 7 11 15 7 17 -6 21 9 5 19 -20 13 -9
25 18 20 19 -5 23 -4 12 3 -8 5 -64 12 -125 14 -90 4 -118 9 -154 28 -40 21
-42 24 -26 37 15 10 21 10 34 0 8 -6 12 -7 8 -1 -3 6 9 18 29 28 20 9 33 12
30 7 -8 -13 4 -42 15 -35 5 3 9 15 9 27 0 17 2 19 9 7 6 -8 7 -18 5 -22 -3 -4
2 -5 10 -2 9 3 16 12 16 19 0 8 4 17 10 20 6 4 7 -1 3 -12 -6 -15 -4 -16 8 -6
8 6 27 14 43 17 15 3 34 10 41 16 7 6 21 7 30 3 13 -4 16 -3 11 5 -4 7 -2 12
3 12 6 0 11 -3 11 -7 0 -5 16 -9 36 -11 26 -1 33 1 28 10 -6 10 -4 11 7 1 7
-7 19 -13 26 -13 18 0 16 29 -2 36 -8 4 -15 12 -15 20 0 8 -5 14 -11 14 -5 0
-7 5 -4 10 3 6 -2 10 -12 10 -10 0 -26 9 -36 20 -9 11 -24 20 -32 20 -8 0 -15
5 -15 10 0 6 -10 10 -21 10 -19 0 -20 2 -8 17 12 15 12 16 -3 10 -10 -3 -18
-2 -18 3 0 5 -7 6 -17 3 -12 -5 -14 -3 -9 8 4 8 0 5 -10 -6 -14 -17 -16 -17
-11 -2 7 18 -8 24 -18 7 -11 -18 -25 -11 -25 13 0 17 2 19 9 8 7 -10 13 -12
23 -5 18 14 48 11 84 -9 17 -9 34 -13 38 -10 3 4 6 -1 6 -10 0 -10 7 -17 15
-17 8 0 15 -4 15 -9 0 -5 9 -11 20 -14 12 -3 20 0 20 8 0 23 -34 54 -90 81
-30 15 -60 35 -67 43 -9 12 -12 13 -13 2 0 -8 -6 -11 -16 -7 -16 6 -78 13
-189 21 -38 2 -93 9 -120 14 -28 5 -70 7 -93 4 -23 -3 -42 -3 -42 0 0 3 15 20
33 36 69 65 219 125 354 140 99 12 128 12 227 1z m-2055 -24 c-2 -2 -17 -6
-34 -10 -22 -5 -26 -4 -15 4 14 9 59 15 49 6z m526 -21 c171 -35 283 -111 324
-217 l9 -25 -56 3 c-70 3 -98 -4 -83 -19 6 -6 11 -17 11 -25 0 -16 -51 12
-117 66 -60 48 -130 72 -211 72 -115 0 -254 -43 -297 -90 l-20 -22 35 19 c37
21 121 45 129 37 2 -2 -1 -4 -7 -4 -7 0 -12 -10 -12 -21 0 -18 -2 -20 -16 -8
-16 13 -19 12 -45 -33 -5 -10 -14 -18 -20 -18 -14 0 -86 -78 -92 -99 -3 -14 0
-17 14 -14 11 3 19 0 19 -7 0 -10 3 -10 15 0 12 10 15 10 15 -1 0 -10 3 -10 8
-3 7 12 65 17 58 5 -3 -4 3 -7 12 -8 9 -1 37 -6 62 -12 25 -6 64 -10 87 -11
23 0 45 -5 48 -10 4 -6 12 -4 22 5 14 14 19 13 51 -12 23 -17 33 -21 30 -11
-5 12 -2 15 15 10 12 -2 27 -9 33 -13 6 -5 14 -6 17 -2 4 3 7 -2 7 -12 0 -10
-3 -16 -6 -12 -3 3 -22 -4 -42 -15 -98 -56 -132 -68 -223 -79 -52 -6 -97 -16
-101 -22 -8 -14 -36 -18 -44 -6 -3 5 0 9 7 9 7 0 10 3 7 6 -4 3 -21 -3 -40
-12 -40 -22 -49 -23 -67 -10 -12 9 -12 7 -2 -12 7 -14 18 -21 27 -18 20 8 17
0 -8 -24 -12 -11 -17 -20 -12 -20 6 0 15 5 22 12 6 6 25 12 40 13 24 1 28 -2
26 -21 -2 -17 2 -21 19 -16 20 5 20 6 1 13 -10 4 -13 8 -6 8 6 1 11 4 11 9 -3
19 2 32 13 32 9 0 9 -3 0 -12 -13 -13 1 -38 22 -38 6 0 4 4 -4 10 -8 5 -11 12
-8 15 4 4 13 3 20 -1 7 -5 19 -9 27 -9 8 0 16 -6 19 -14 3 -10 -1 -12 -16 -9
-13 4 -26 0 -34 -10 -10 -12 -10 -14 0 -8 7 4 12 2 12 -6 0 -11 2 -11 9 0 4 7
12 12 17 11 28 -5 46 2 40 17 -3 8 -2 12 4 9 6 -3 10 -13 10 -21 0 -8 5 -14
11 -14 5 0 7 -6 4 -12 -4 -7 0 -5 8 5 10 12 17 14 22 8 4 -8 12 -8 26 -1 10 6
19 7 19 3 0 -4 5 -2 12 5 9 9 15 9 25 0 10 -8 17 -8 25 0 7 7 22 12 34 12 25
0 100 32 135 57 38 28 72 46 64 34 -3 -6 -3 -11 2 -11 4 0 19 -9 33 -20 14
-11 20 -19 13 -18 -6 2 -10 -1 -10 -7 1 -5 7 -10 14 -10 24 0 24 -14 2 -62
-13 -26 -25 -52 -28 -58 -2 -5 4 -4 15 4 10 7 -5 -9 -34 -37 -101 -98 -262
-150 -427 -137 -166 12 -266 54 -360 149 -105 107 -167 238 -185 392 -14 123
4 203 61 276 73 92 201 144 419 172 64 8 234 -2 315 -19z m1044 21 c-2 -2 -15
-9 -29 -16 -23 -12 -24 -12 -11 3 7 10 20 17 29 17 8 0 13 -2 11 -4z m-75 -41
c-10 -8 -23 -15 -28 -15 -6 0 -1 7 10 15 10 8 23 15 28 15 6 0 1 -7 -10 -15z
m1190 -1 c3 -8 2 -12 -4 -9 -6 3 -10 10 -10 16 0 14 7 11 14 -7z m-3727 -10
c-3 -3 -12 -4 -19 -1 -8 3 -5 6 6 6 11 1 17 -2 13 -5z m3674 -71 c-12 -20 -14
-14 -5 12 4 9 9 14 11 11 3 -2 0 -13 -6 -23z m-2251 -87 c0 -3 -7 -12 -17 -21
-12 -13 -13 -19 -4 -25 9 -5 4 -9 -14 -12 -22 -5 -26 -2 -22 13 6 21 -8 35
-18 19 -10 -16 -23 -12 -35 10 -10 19 -8 20 50 20 33 0 60 -2 60 -4z m81 -29
c24 -17 24 -17 2 -14 -12 2 -26 6 -29 10 -13 13 -32 7 -37 -10 -3 -12 -5 -10
-6 7 -1 21 3 25 22 25 13 -1 34 -9 48 -18z m144 -37 c-3 -4 11 -17 30 -29 55
-32 41 -43 -18 -13 -50 25 -71 52 -40 52 9 0 11 5 7 13 -5 8 -3 8 9 -2 9 -7
15 -17 12 -21z m1175 16 c0 -16 -18 -31 -27 -22 -8 8 5 36 17 36 5 0 10 -6 10
-14z m-1540 -77 c0 -17 5 -39 10 -50 8 -13 7 -19 0 -19 -17 0 -65 27 -80 45
-12 15 -11 19 10 36 38 29 60 25 60 -12z m1717 -1 c12 -16 27 -55 17 -45 -4 4
-12 0 -18 -8 -6 -7 -24 -17 -40 -21 -28 -7 -29 -6 -23 26 4 18 7 39 7 46 0 18
44 18 57 2z m-1579 -76 c2 -7 -3 -12 -12 -12 -9 0 -16 7 -16 16 0 17 22 14 28
-4z m1382 -12 c0 -5 -4 -10 -10 -10 -5 0 -10 5 -10 10 0 6 5 10 10 10 6 0 10
-4 10 -10z m687 -32 c-3 -8 -6 -5 -6 6 -1 11 2 17 5 13 3 -3 4 -12 1 -19z
m-27 -95 c-11 -17 -11 -17 -6 0 3 10 6 24 7 30 0 9 2 9 5 0 3 -7 0 -20 -6 -30z
m-1630 -203 c-6 -11 -13 -20 -16 -20 -2 0 0 9 6 20 6 11 13 20 16 20 2 0 0 -9
-6 -20z m745 -120 c3 -6 -1 -7 -9 -4 -18 7 -21 14 -7 14 6 0 13 -4 16 -10z
m975 -30 c8 -5 11 -10 5 -10 -5 0 -17 5 -25 10 -8 5 -10 10 -5 10 6 0 17 -5
25 -10z m-3045 -20 c3 -6 -1 -7 -9 -4 -18 7 -21 14 -7 14 6 0 13 -4 16 -10z
m3032 -6 c-3 -3 -12 -4 -19 -1 -8 3 -5 6 6 6 11 1 17 -2 13 -5z m-3028 -50
c14 -12 -19 -1 -35 12 -18 14 -18 14 6 3 14 -6 27 -13 29 -15z m94 9 c-7 -2
-21 -2 -30 0 -10 3 -4 5 12 5 17 0 24 -2 18 -5z m30 -20 c-7 -2 -19 -2 -25 0
-7 3 -2 5 12 5 14 0 19 -2 13 -5z m-117 -41 c-6 -5 -56 21 -56 29 0 5 13 0 29
-9 16 -9 28 -18 27 -20z m104 18 c-20 -13 -53 -13 -45 0 3 6 18 10 33 10 21 0
24 -2 12 -10z m2910 0 c13 -9 13 -10 0 -10 -8 0 -22 5 -30 10 -13 9 -13 10 0
10 8 0 22 -5 30 -10z m-3149 -20 c-13 -11 -31 -20 -40 -20 -10 0 -5 7 14 19
39 26 56 26 26 1z m3276 4 c-3 -3 -12 -4 -19 -1 -8 3 -5 6 6 6 11 1 17 -2 13
-5z m-142 -14 c3 -5 2 -10 -4 -10 -5 0 -13 5 -16 10 -3 6 -2 10 4 10 5 0 13
-4 16 -10z m-3000 -41 c17 -19 17 -21 3 -16 -13 4 -16 2 -11 -11 3 -9 13 -23
22 -31 14 -11 13 -12 -9 -6 l-25 6 25 -20 c15 -13 20 -21 11 -21 -11 0 -10 -5
4 -20 20 -22 31 -110 14 -110 -10 0 18 -50 34 -61 5 -4 4 -10 -2 -13 -6 -4 -8
-12 -5 -18 4 -6 -7 -3 -25 8 -29 17 -46 43 -18 29 6 -4 5 -1 -4 7 -17 14 -54
165 -65 262 -7 55 -6 58 12 48 11 -6 28 -20 39 -33z m123 24 c-10 -2 -28 -2
-40 0 -13 2 -5 4 17 4 22 1 32 -1 23 -4z m3012 -3 c8 -5 11 -10 5 -10 -5 0
-17 5 -25 10 -8 5 -10 10 -5 10 6 0 17 -5 25 -10z m-3240 -11 c0 -5 4 -8 10
-4 11 7 27 -49 51 -189 24 -139 25 -133 -13 -131 -77 6 -100 22 -142 104 -41
78 -31 201 18 221 30 12 76 12 76 -1z m210 -9 c0 -5 -2 -10 -4 -10 -3 0 -8 5
-11 10 -3 6 -1 10 4 10 6 0 11 -4 11 -10z m2877 4 c-3 -3 -12 -4 -19 -1 -8 3
-5 6 6 6 11 1 17 -2 13 -5z m3 -24 c13 -9 13 -10 0 -10 -8 0 -22 5 -30 10 -13
9 -13 10 0 10 8 0 22 -5 30 -10z m-2840 -10 c0 -5 -10 -11 -22 -11 -19 -1 -17
-3 7 -9 23 -6 25 -8 8 -9 -32 -2 -52 9 -46 25 6 16 53 19 53 4z m2835 -14 c18
-13 18 -14 -8 -9 -15 3 -30 9 -33 14 -8 14 20 10 41 -5z m150 -6 c-3 -5 -18
-10 -33 -9 l-27 1 25 8 c35 11 42 11 35 0z m-150 -30 c8 -13 2 -13 -29 1 -14
7 -23 16 -20 20 6 10 39 -5 49 -21z m209 15 c-4 -8 -1 -15 5 -15 7 0 11 -23
11 -61 0 -56 -3 -66 -36 -105 -19 -24 -44 -49 -54 -54 -21 -11 -19 -4 32 145
31 90 37 105 42 105 3 0 3 -7 0 -15z m-3051 -12 c-7 -2 -21 -2 -30 0 -10 3 -4
5 12 5 17 0 24 -2 18 -5z m2989 -28 c-5 -40 -5 -40 -54 -49 -44 -8 -52 8 -13
26 19 8 22 14 13 20 -9 5 -3 8 17 9 20 1 24 3 11 6 -15 4 -16 7 -5 14 27 17
35 9 31 -26z m-187 15 c3 -5 1 -10 -4 -10 -6 0 -11 5 -11 10 0 6 2 10 4 10 3
0 8 -4 11 -10z m-2765 -19 c0 -5 -8 -12 -17 -15 -14 -6 -15 -9 -4 -15 10 -6
10 -10 1 -16 -6 -4 -19 0 -29 9 -10 9 -23 16 -29 16 -6 0 -9 7 -6 15 7 16 84
22 84 6z m2780 -11 c11 -7 11 -10 2 -10 -8 0 -10 -5 -6 -12 5 -8 2 -9 -10 -5
-10 4 -22 7 -27 7 -4 0 -6 7 -3 15 7 17 22 19 44 5z m-2839 -48 c-7 -2 -18 1
-23 6 -8 8 -4 9 13 5 13 -4 18 -8 10 -11z m2803 -3 c-17 -7 -17 -8 -1 -8 19
-1 23 -16 6 -27 -8 -4 -7 -9 2 -15 10 -6 5 -9 -16 -10 l-30 -1 37 -16 c21 -10
38 -21 38 -26 0 -9 -68 -1 -78 9 -3 2 1 24 8 47 7 24 14 49 16 55 2 8 10 10
20 6 16 -6 16 -7 -2 -14z m189 4 c-7 -2 -21 -2 -30 0 -10 3 -4 5 12 5 17 0 24
-2 18 -5z m-2923 -12 c0 -20 -31 -33 -65 -27 -46 9 -45 23 1 18 26 -3 35 -1
30 7 -5 7 1 11 13 11 12 0 21 -4 21 -9z m2912 -26 c-2 -11 -11 -31 -20 -45
-16 -24 -18 -29 -21 -49 0 -5 -10 -13 -21 -16 -11 -4 -18 -10 -15 -15 3 -4 -2
-10 -10 -14 -10 -3 -15 1 -15 12 0 36 13 60 33 67 14 4 17 8 10 12 -22 8 -14
33 10 34 21 0 21 1 -3 11 l-25 11 25 7 c38 12 55 7 52 -15z m-2967 -15 c18 -8
17 -9 -7 -9 -16 -1 -28 4 -28 9 0 12 8 12 35 0z m45 -30 c9 -1 5 -5 -8 -11
-26 -10 -72 -2 -72 12 0 5 15 7 33 5 17 -3 39 -5 47 -6z m0 -41 c0 -5 -16 -9
-35 -9 -41 0 -47 17 -7 22 31 4 42 1 42 -13z m2720 -2 c11 3 20 0 20 -6 0 -6
-11 -11 -25 -11 -17 0 -25 5 -24 18 0 9 3 12 5 6 3 -7 14 -10 24 -7z"/>
<path d="M2365 4260 c3 -5 11 -10 16 -10 6 0 7 5 4 10 -3 6 -11 10 -16 10 -6
0 -7 -4 -4 -10z"/>
<path d="M2717 4254 c6 -15 23 -19 23 -5 0 5 -7 11 -14 14 -10 4 -13 1 -9 -9z"/>
<path d="M2326 4237 c3 -10 9 -15 12 -12 3 3 0 11 -7 18 -10 9 -11 8 -5 -6z"/>
<path d="M2850 4240 c0 -5 7 -7 15 -4 8 4 15 8 15 10 0 2 -7 4 -15 4 -8 0 -15
-4 -15 -10z"/>
<path d="M2180 4230 c0 -5 5 -10 11 -10 5 0 7 5 4 10 -3 6 -8 10 -11 10 -2 0
-4 -4 -4 -10z"/>
<path d="M2730 4216 c25 -14 54 -25 65 -25 13 0 6 7 -20 18 -66 29 -93 33 -45
7z"/>
<path d="M2510 4196 c0 -2 7 -9 15 -16 9 -7 15 -8 15 -2 0 5 -7 12 -15 16 -8
3 -15 4 -15 2z"/>
<path d="M2852 4176 c7 -8 15 -12 17 -11 5 6 -10 25 -20 25 -5 0 -4 -6 3 -14z"/>
<path d="M2022 4120 c0 -14 2 -19 5 -12 2 6 2 18 0 25 -3 6 -5 1 -5 -13z"/>
<path d="M2730 4130 c8 -5 20 -10 25 -10 6 0 3 5 -5 10 -8 5 -19 10 -25 10 -5
0 -3 -5 5 -10z"/>
<path d="M2820 4135 c1 -14 38 -61 43 -55 3 3 -6 19 -19 35 -13 17 -24 26 -24
20z"/>
<path d="M2290 4121 c0 -5 7 -12 16 -15 14 -5 15 -4 4 9 -14 17 -20 19 -20 6z"/>
<path d="M2910 4076 c0 -38 -17 -57 -31 -35 -4 7 -11 10 -15 6 -4 -3 -1 -13 5
-21 10 -11 8 -15 -6 -19 -17 -4 -17 -5 0 -6 10 -1 17 -9 17 -21 0 -11 4 -20 9
-20 4 0 6 -11 3 -25 -2 -14 -9 -22 -14 -19 -6 4 -8 -1 -4 -13 4 -12 -10 -51
-40 -109 -25 -49 -41 -84 -37 -79 29 33 63 86 63 97 0 7 7 21 15 32 14 18 15
18 49 -10 19 -16 35 -35 35 -43 1 -8 4 -11 7 -8 4 3 16 1 28 -5 13 -7 8 1 -11
19 -18 17 -33 37 -33 45 0 10 -2 10 -8 0 -6 -9 -14 -6 -31 12 -18 20 -22 31
-16 57 5 23 10 28 16 18 6 -9 7 -4 4 16 -7 41 2 51 60 62 l50 11 -49 1 c-45 1
-48 3 -42 24 6 27 -3 67 -15 67 -5 0 -9 -15 -9 -34z"/>
<path d="M2773 3993 c9 -2 25 -2 35 0 9 3 1 5 -18 5 -19 0 -27 -2 -17 -5z"/>
<path d="M2950 3955 c0 -8 4 -15 10 -15 5 0 7 7 4 15 -4 8 -8 15 -10 15 -2 0
-4 -7 -4 -15z"/>
<path d="M3335 3930 c-4 -6 -1 -17 5 -25 9 -11 11 -53 8 -147 -4 -100 -2 -123
5 -93 14 58 15 251 1 265 -9 9 -14 9 -19 0z"/>
<path d="M1822 3840 c0 -19 2 -27 5 -17 2 9 2 25 0 35 -3 9 -5 1 -5 -18z"/>
<path d="M3332 3845 c0 -16 2 -22 5 -12 2 9 2 23 0 30 -3 6 -5 -1 -5 -18z"/>
<path d="M1823 3760 c0 -25 2 -35 4 -22 2 12 2 32 0 45 -2 12 -4 2 -4 -23z"/>
<path d="M3321 3784 c0 -11 3 -14 6 -6 3 7 2 16 -1 19 -3 4 -6 -2 -5 -13z"/>
<path d="M3270 3754 c0 -11 -5 -25 -11 -31 -7 -7 -7 -13 -1 -17 11 -7 28 51
18 61 -3 4 -6 -3 -6 -13z"/>
<path d="M3045 3752 c6 -6 37 -24 70 -41 33 -17 51 -24 40 -15 -25 20 -123 70
-110 56z"/>
<path d="M3306 3744 c-4 -9 -4 -19 -1 -22 2 -3 7 3 11 12 4 9 4 19 1 22 -2 3
-7 -3 -11 -12z"/>
<path d="M3270 3670 c-12 -23 -25 -38 -30 -35 -6 4 -10 2 -10 -3 0 -15 -111
-123 -120 -117 -4 3 -10 -2 -14 -10 -11 -30 22 -14 83 42 59 52 98 104 114
146 12 31 -2 18 -23 -23z"/>
<path d="M3331 3594 c0 -11 3 -14 6 -6 3 7 2 16 -1 19 -3 4 -6 -2 -5 -13z"/>
<path d="M1290 3586 c7 -7 14 -6 21 1 9 9 7 12 -9 10 -14 -1 -18 -5 -12 -11z"/>
<path d="M1580 3580 c-6 -11 -8 -20 -6 -20 3 0 10 9 16 20 6 11 8 20 6 20 -3
0 -10 -9 -16 -20z"/>
<path d="M1288 3552 c-4 -16 -1 -18 21 -14 17 4 21 7 11 10 -8 3 -18 9 -21 14
-3 5 -8 1 -11 -10z"/>
<path d="M1216 3503 c-6 -14 -5 -15 5 -6 7 7 10 15 7 18 -3 3 -9 -2 -12 -12z"/>
<path d="M1300 3510 c0 -6 -4 -8 -10 -5 -6 3 -10 -4 -10 -16 0 -22 0 -22 -22
-3 -20 17 -21 17 -8 1 12 -16 12 -20 -1 -28 -13 -8 -6 -13 14 -10 4 0 7 -2 7
-5 0 -7 -27 -34 -34 -34 -3 0 -16 -10 -28 -22 -19 -19 -19 -21 -2 -13 33 14
102 16 110 4 5 -8 2 -10 -7 -5 -21 11 23 -24 46 -36 15 -9 13 -4 -8 21 -15 18
-27 37 -27 42 0 5 -12 6 -26 3 -19 -5 -25 -4 -20 5 4 6 12 9 17 6 5 -4 9 -2 9
3 0 5 10 14 23 21 21 11 21 11 1 8 -19 -4 -21 -1 -14 29 4 19 4 37 -1 40 -5 3
-9 0 -9 -6z"/>
<path d="M1469 3463 c-13 -16 -12 -17 4 -4 9 7 17 15 17 17 0 8 -8 3 -21 -13z"/>
<path d="M1265 3369 c-4 -6 -4 -13 -1 -16 3 -4 6 -1 6 6 0 7 5 9 10 6 6 -3 10
-1 10 4 0 14 -17 14 -25 0z"/>
<path d="M3148 3293 c7 -3 16 -2 19 1 4 3 -2 6 -13 5 -11 0 -14 -3 -6 -6z"/>
<path d="M1172 3265 c0 -16 2 -22 5 -12 2 9 2 23 0 30 -3 6 -5 -1 -5 -18z"/>
<path d="M1142 3235 c0 -16 2 -22 5 -12 2 9 2 23 0 30 -3 6 -5 -1 -5 -18z"/>
<path d="M1542 4015 c-17 -37 -14 -45 4 -12 9 16 14 31 11 33 -2 2 -9 -7 -15
-21z"/>
<path d="M3100 3130 c0 -5 -8 -7 -17 -4 -16 5 -16 4 0 -6 12 -8 22 -8 30 -2 7
5 26 9 44 7 18 -1 30 2 27 7 -7 11 -84 10 -84 -2z"/>
<path d="M3338 3133 c6 -2 18 -2 25 0 6 3 1 5 -13 5 -14 0 -19 -2 -12 -5z"/>
<path d="M3428 3113 c6 -2 18 -2 25 0 6 3 1 5 -13 5 -14 0 -19 -2 -12 -5z"/>
<path d="M3288 2573 c6 -2 18 -2 25 0 6 3 1 5 -13 5 -14 0 -19 -2 -12 -5z"/>
<path d="M3327 2509 c7 -7 15 -10 18 -7 3 3 -2 9 -12 12 -14 6 -15 5 -6 -5z"/>
<path d="M1096 2927 c-31 -47 -46 -110 -46 -195 0 -95 9 -102 21 -16 5 39 14
60 27 70 17 12 20 25 19 89 0 41 -2 75 -3 75 -2 0 -10 -10 -18 -23z"/>
<path d="M1380 2499 c0 -5 5 -7 10 -4 6 3 10 8 10 11 0 2 -4 4 -10 4 -5 0 -10
-5 -10 -11z"/>
<path d="M2070 1905 c0 -2 19 -14 43 -25 l42 -21 -28 26 c-25 22 -57 34 -57
20z"/>
<path d="M2744 1675 c-5 -13 -9 -13 -22 -3 -13 11 -14 10 -10 -2 7 -23 35 -24
41 0 6 23 -1 27 -9 5z"/>
<path d="M2805 1650 c-3 -5 1 -13 10 -16 22 -9 29 1 11 15 -10 8 -16 9 -21 1z"/>
<path d="M3016 1635 c4 -8 11 -15 16 -15 6 0 5 6 -2 15 -7 8 -14 15 -16 15 -2
0 -1 -7 2 -15z"/>
<path d="M3059 1639 c-1 -8 -1 -17 0 -21 0 -5 -4 -8 -10 -8 -5 0 -7 -4 -4 -10
3 -5 1 -10 -5 -10 -8 0 -8 -6 0 -20 6 -11 17 -20 26 -20 12 0 13 4 3 23 -11
20 -11 21 4 9 9 -8 21 -11 27 -7 5 3 10 1 10 -5 0 -6 5 -8 12 -4 7 5 9 2 6 -7
-17 -46 -17 -55 2 -67 17 -10 20 -10 20 3 0 8 5 15 10 15 6 0 10 -6 10 -12 0
-9 4 -8 10 2 5 8 9 22 9 30 0 9 -3 10 -5 4 -7 -18 -44 -4 -44 16 0 9 -11 26
-25 36 -14 10 -25 24 -25 30 0 6 -7 17 -15 24 -12 10 -15 10 -16 -1z"/>
<path d="M2815 1600 c3 -5 11 -10 16 -10 6 0 7 5 4 10 -3 6 -11 10 -16 10 -6
0 -7 -4 -4 -10z"/>
<path d="M3130 1601 c0 -5 7 -12 16 -15 14 -5 15 -4 4 9 -14 17 -20 19 -20 6z"/>
<path d="M2931 1592 c-1 -8 -6 -10 -13 -6 -10 5 -10 4 -1 -6 15 -16 28 -8 20
12 -4 11 -6 11 -6 0z"/>
<path d="M3090 1546 c0 -9 5 -16 10 -16 6 0 10 4 10 9 0 6 -4 13 -10 16 -5 3
-10 -1 -10 -9z"/>
<path d="M2905 1396 c-17 -7 -82 -25 -145 -40 -63 -15 -165 -39 -227 -53 -112
-27 -113 -27 -260 -14 -149 13 -281 44 -383 90 -32 14 -48 17 -57 9 -14 -11
-18 -30 -5 -25 11 3 55 -34 75 -65 19 -30 57 -38 57 -13 0 11 9 15 30 13 17
-1 30 -8 30 -15 0 -7 7 -10 15 -6 9 3 25 -3 35 -12 11 -10 20 -15 20 -10 0 4
11 0 25 -9 13 -9 33 -16 44 -16 11 0 24 -8 30 -17 8 -14 11 -15 25 -4 9 8 19
11 23 7 3 -3 0 -6 -8 -6 -12 0 -12 -2 0 -9 8 -5 23 -6 35 -2 11 5 43 2 71 -5
62 -16 145 -14 165 5 10 9 15 10 18 2 2 -7 9 -6 19 4 8 8 19 13 24 10 5 -4 6
0 3 8 -4 10 6 16 32 20 20 3 44 12 53 20 19 16 87 38 124 40 16 1 27 8 27 16
0 8 3 11 6 8 4 -3 18 2 32 13 27 22 45 18 35 -6 -5 -13 -1 -15 18 -9 32 10 89
57 89 73 0 16 -37 15 -75 -2z"/>
<path d="M2860 1299 c0 -5 5 -7 10 -4 6 3 10 8 10 11 0 2 -4 4 -10 4 -5 0 -10
-5 -10 -11z"/>
<path d="M2833 1283 c-18 -7 -16 -23 2 -23 8 0 15 7 15 15 0 8 -1 15 -2 14 -2
0 -9 -3 -15 -6z"/>
<path d="M3405 1033 c0 -63 -4 -117 -9 -120 -4 -3 -2 -9 5 -14 12 -8 11 -11
-1 -19 -12 -8 -13 -13 -3 -29 7 -11 9 -22 5 -25 -5 -3 -7 -37 -5 -76 3 -56 0
-72 -12 -76 -18 -7 -20 -25 -2 -22 15 4 20 -79 6 -101 -8 -12 -9 -11 -4 7 4
12 2 22 -4 22 -5 0 -8 -13 -6 -30 2 -16 0 -32 -6 -35 -5 -4 -9 -11 -9 -17 0
-6 6 -6 15 2 9 7 18 10 22 6 3 -3 1 -6 -6 -6 -9 0 -12 -20 -10 -73 3 -81 1
-87 -131 -297 -36 -58 -69 -111 -74 -117 -5 -9 0 -13 18 -13 20 0 27 7 34 32
5 18 25 50 45 70 37 39 89 128 111 188 7 19 29 58 50 85 20 28 54 91 75 140
21 50 54 117 75 150 20 33 36 73 36 88 0 16 5 37 10 48 7 13 7 19 0 19 -5 0
-10 7 -10 15 0 9 -6 15 -12 14 -31 -5 -115 36 -134 67 -20 29 -54 154 -54 196
0 15 -3 29 -7 31 -5 3 -8 -47 -8 -110z"/>
<path d="M3347 1073 c-12 -12 -7 -22 8 -17 8 4 15 10 15 15 0 11 -14 12 -23 2z"/>
<path d="M1138 936 c-15 -18 -62 -57 -103 -85 -79 -55 -344 -195 -428 -226
-44 -17 -47 -20 -42 -46 3 -15 1 -30 -4 -34 -13 -8 -14 -50 -2 -73 5 -9 64
-66 131 -127 67 -60 136 -130 153 -155 17 -25 60 -78 96 -117 l66 -73 84 0
c65 0 81 3 74 13 -6 6 -13 24 -17 40 -3 15 -11 27 -16 27 -15 0 -12 75 5 117
8 21 19 67 26 103 12 68 15 232 5 248 -3 5 -4 102 -3 216 1 113 2 206 2 205 0
0 -12 -15 -27 -33z"/>
<path d="M3100 799 c0 -5 5 -7 10 -4 6 3 10 8 10 11 0 2 -4 4 -10 4 -5 0 -10
-5 -10 -11z"/>
<path d="M3045 700 c-8 -13 5 -13 25 0 13 8 13 10 -2 10 -9 0 -20 -4 -23 -10z"/>
<path d="M3015 671 c3 -5 -2 -17 -11 -25 -11 -12 -12 -16 -2 -16 7 0 24 12 37
25 l23 25 -27 0 c-14 0 -24 -4 -20 -9z"/>
<path d="M1804 649 c-3 -6 -1 -16 5 -22 8 -8 11 -5 11 11 0 24 -5 28 -16 11z"/>
<path d="M1852 588 c11 -31 11 -31 20 -9 9 26 3 41 -17 41 -11 0 -12 -6 -3
-32z"/>
<path d="M2986 605 c-3 -8 -2 -15 3 -15 5 0 14 7 21 15 10 12 10 15 -3 15 -8
0 -17 -7 -21 -15z"/>
<path d="M1885 568 c9 -30 17 -36 22 -20 3 6 9 10 14 6 22 -13 6 5 -17 21 -26
16 -26 16 -19 -7z"/>
<path d="M2940 560 c-7 -10 -24 -21 -36 -24 -13 -3 -25 -14 -28 -24 -6 -17
-95 -54 -130 -53 -18 0 -18 -1 -3 -16 16 -16 53 -11 43 6 -7 11 41 24 54 16 6
-4 10 -1 10 4 0 6 8 11 19 11 10 0 21 9 24 20 3 13 14 20 30 20 19 0 26 6 30
28 7 34 4 36 -13 12z"/>
<path d="M1940 524 c0 -8 5 -12 10 -9 6 3 13 0 16 -8 2 -7 11 -14 19 -14 23 0
18 10 -15 29 -26 15 -30 15 -30 2z"/>
<path d="M2040 470 c0 -5 5 -10 11 -10 5 0 7 5 4 10 -3 6 -8 10 -11 10 -2 0
-4 -4 -4 -10z"/>
<path d="M2135 440 c4 -6 11 -8 16 -5 14 9 11 15 -7 15 -8 0 -12 -5 -9 -10z"/>
<path d="M2263 438 c-2 -5 8 -8 24 -8 15 0 37 -3 49 -6 14 -4 21 -1 21 8 0 10
-14 14 -45 13 -24 0 -46 -3 -49 -7z"/>
<path d="M2580 440 c-13 -8 -12 -10 3 -10 9 0 17 5 17 10 0 12 -1 12 -20 0z"/>
<path d="M2705 440 c3 -5 8 -10 11 -10 2 0 4 5 4 10 0 6 -5 10 -11 10 -5 0 -7
-4 -4 -10z"/>
<path d="M2198 433 c6 -2 18 -2 25 0 6 3 1 5 -13 5 -14 0 -19 -2 -12 -5z"/>
<path d="M2614 433 c10 -11 37 -12 30 -2 -3 5 -12 9 -21 9 -9 0 -13 -3 -9 -7z"/>
</g>
</svg>
